<svg width="20" height="22" viewBox="0 0 20 22" fill="none" xmlns="http://www.w3.org/2000/svg">
<path d="M9.38606 0.210648C9.74717 -0.0702159 10.2528 -0.0702159 10.6139 0.210648L19.6139 7.21065C19.8575 7.4001 20 7.69141 20 8V19C20 19.7957 19.6839 20.5587 19.1213 21.1213C18.5587 21.6839 17.7957 22 17 22H13V13C13 11.8954 12.1046 11 11 11H9C7.89543 11 7 11.8954 7 13V22H3C2.20435 22 1.44129 21.6839 0.87868 21.1213C0.31607 20.5587 0 19.7957 0 19V8C0 7.69141 0.142473 7.4001 0.386059 7.21065L9.38606 0.210648Z" fill="#E7E0EC"/>
</svg>
