<svg xmlns="http://www.w3.org/2000/svg" xmlns:xlink="http://www.w3.org/1999/xlink" width="500" zoomAndPan="magnify" viewBox="0 0 375 374.999991" height="500" preserveAspectRatio="xMidYMid meet" version="1.0"><defs><clipPath id="e1d5c41ba8"><path d="M 23.4375 7.691406 L 341 7.691406 L 341 367.859375 L 23.4375 367.859375 Z M 23.4375 7.691406 " clip-rule="nonzero"/></clipPath><clipPath id="611c9e7203"><path d="M 335.28125 196.800781 L 39.71875 365.699219 C 36.347656 367.621094 32.210938 367.609375 28.855469 365.660156 C 25.503906 363.714844 23.4375 360.128906 23.4375 356.25 L 23.4375 18.75 C 23.4375 14.871094 25.503906 11.285156 28.855469 9.339844 C 32.210938 7.390625 36.347656 7.378906 39.71875 9.300781 L 335.28125 178.199219 C 338.621094 180.105469 340.679688 183.65625 340.679688 187.5 C 340.679688 191.34375 338.621094 194.894531 335.28125 196.800781 Z M 335.28125 196.800781 " clip-rule="nonzero"/></clipPath><clipPath id="e2cb193283"><path d="M 23.4375 7 L 341 7 L 341 368 L 23.4375 368 Z M 23.4375 7 " clip-rule="nonzero"/></clipPath><clipPath id="b6d7e30885"><path d="M 335.28125 196.800781 L 39.71875 365.699219 C 36.347656 367.621094 32.210938 367.609375 28.855469 365.660156 C 25.503906 363.714844 23.4375 360.128906 23.4375 356.25 L 23.4375 18.75 C 23.4375 14.871094 25.503906 11.285156 28.855469 9.339844 C 32.210938 7.390625 36.347656 7.378906 39.71875 9.300781 L 335.28125 178.199219 C 338.621094 180.105469 340.679688 183.65625 340.679688 187.5 C 340.679688 191.34375 338.621094 194.894531 335.28125 196.800781 Z M 335.28125 196.800781 " clip-rule="nonzero"/></clipPath></defs><g clip-path="url(#e1d5c41ba8)"><g clip-path="url(#611c9e7203)"><path fill="#eeeeee" d="M 351.5625 0 L 351.5625 375.550781 L 23.4375 375.550781 L 23.4375 0 Z M 351.5625 0 " fill-opacity="1" fill-rule="nonzero"/></g></g><g clip-path="url(#e2cb193283)"><g clip-path="url(#b6d7e30885)"><path stroke-linecap="butt" transform="matrix(0, 0.75, -0.75, 0, 351.562481, 0)" fill="none" stroke-linejoin="miter" d="M 262.401042 21.708309 L 487.598959 415.791643 C 490.161459 420.286434 490.145834 425.802059 487.546876 430.276018 C 484.953126 434.744768 480.171876 437.499976 475.000001 437.499976 L 25 437.499976 C 19.828125 437.499976 15.046875 434.744768 12.453125 430.276018 C 9.854167 425.802059 9.838542 420.286434 12.401042 415.791643 L 237.598959 21.708309 C 240.140625 17.255184 244.875 14.510392 250 14.510392 C 255.125 14.510392 259.859375 17.255184 262.401042 21.708309 Z M 262.401042 21.708309 " stroke="#d9d9d9" stroke-width="20" stroke-opacity="1" stroke-miterlimit="4"/></g></g></svg>