<svg width="50" height="50" viewBox="0 0 50 50" fill="none" xmlns="http://www.w3.org/2000/svg">
<path d="M25 9.99041C25.663 9.99041 26.2989 9.72727 26.7678 9.25888C27.2366 8.79049 27.5 8.15521 27.5 7.49281V2.4976C27.5 1.8352 27.2366 1.19992 26.7678 0.731531C26.2989 0.263139 25.663 0 25 0C24.337 0 23.7011 0.263139 23.2322 0.731531C22.7634 1.19992 22.5 1.8352 22.5 2.4976V7.49281C22.5 8.15521 22.7634 8.79049 23.2322 9.25888C23.7011 9.72727 24.337 9.99041 25 9.99041ZM47.5 22.4784H42.5C41.837 22.4784 41.2011 22.7416 40.7322 23.21C40.2634 23.6783 40 24.3136 40 24.976C40 25.6384 40.2634 26.2737 40.7322 26.7421C41.2011 27.2105 41.837 27.4736 42.5 27.4736H47.5C48.163 27.4736 48.7989 27.2105 49.2678 26.7421C49.7366 26.2737 50 25.6384 50 24.976C50 24.3136 49.7366 23.6783 49.2678 23.21C48.7989 22.7416 48.163 22.4784 47.5 22.4784ZM10 24.976C10 24.3136 9.73661 23.6783 9.26777 23.21C8.79893 22.7416 8.16304 22.4784 7.5 22.4784H2.5C1.83696 22.4784 1.20107 22.7416 0.732233 23.21C0.263392 23.6783 0 24.3136 0 24.976C0 25.6384 0.263392 26.2737 0.732233 26.7421C1.20107 27.2105 1.83696 27.4736 2.5 27.4736H7.5C8.16304 27.4736 8.79893 27.2105 9.26777 26.7421C9.73661 26.2737 10 25.6384 10 24.976ZM10.55 7.49281C10.0627 7.03244 9.41223 6.78433 8.74179 6.80306C8.07135 6.8218 7.43581 7.10584 6.975 7.59271C6.51419 8.07958 6.26584 8.72939 6.28459 9.39919C6.30335 10.069 6.58766 10.7039 7.075 11.1643L10.675 14.636C10.9166 14.869 11.2027 15.051 11.5163 15.1712C11.8298 15.2913 12.1644 15.3472 12.5 15.3353C12.8368 15.334 13.1698 15.2648 13.4791 15.1317C13.7884 14.9987 14.0676 14.8045 14.3 14.561C14.7656 14.0931 15.027 13.46 15.027 12.8002C15.027 12.1404 14.7656 11.5074 14.3 11.0394L10.55 7.49281ZM37.5 15.3353C38.1437 15.3327 38.7616 15.0822 39.225 14.636L42.825 11.1643C43.2642 10.7059 43.5122 10.0976 43.5187 9.46309C43.5253 8.82857 43.2898 8.21535 42.8602 7.74799C42.4306 7.28062 41.839 6.99415 41.2056 6.94675C40.5722 6.89936 39.9445 7.09459 39.45 7.49281L35.85 11.0394C35.3844 11.5074 35.123 12.1404 35.123 12.8002C35.123 13.46 35.3844 14.0931 35.85 14.561C36.2829 15.0174 36.8721 15.2939 37.5 15.3353ZM25 39.9616C24.337 39.9616 23.7011 40.2248 23.2322 40.6932C22.7634 41.1616 22.5 41.7968 22.5 42.4592V47.4545C22.5 48.1169 22.7634 48.7521 23.2322 49.2205C23.7011 49.6889 24.337 49.9521 25 49.9521C25.663 49.9521 26.2989 49.6889 26.7678 49.2205C27.2366 48.7521 27.5 48.1169 27.5 47.4545V42.4592C27.5 41.7968 27.2366 41.1616 26.7678 40.6932C26.2989 40.2248 25.663 39.9616 25 39.9616ZM39.325 35.3161C38.8476 34.8557 38.2067 34.6037 37.5433 34.6154C36.8799 34.6271 36.2483 34.9016 35.7875 35.3785C35.3267 35.8555 35.0744 36.4958 35.0861 37.1585C35.0978 37.8213 35.3726 38.4523 35.85 38.9127L39.45 42.4592C39.9134 42.9055 40.5313 43.156 41.175 43.1586C41.51 43.1605 41.8419 43.0952 42.1511 42.9665C42.4604 42.8378 42.7405 42.6483 42.975 42.4093C43.2093 42.1771 43.3953 41.9009 43.5222 41.5965C43.6492 41.2922 43.7145 40.9657 43.7145 40.636C43.7145 40.3063 43.6492 39.9798 43.5222 39.6755C43.3953 39.3711 43.2093 39.0949 42.975 38.8627L39.325 35.3161ZM10.675 35.3161L7.075 38.7878C6.84068 39.02 6.65469 39.2962 6.52777 39.6006C6.40085 39.9049 6.3355 40.2314 6.3355 40.5611C6.3355 40.8908 6.40085 41.2172 6.52777 41.5216C6.65469 41.8259 6.84068 42.1022 7.075 42.3344C7.30948 42.5734 7.58965 42.7629 7.89886 42.8916C8.20807 43.0203 8.54003 43.0856 8.875 43.0837C9.49129 43.0889 10.0878 42.8665 10.55 42.4592L14.15 38.9876C14.6274 38.5272 14.9022 37.8962 14.9139 37.2335C14.9256 36.5707 14.6733 35.9304 14.2125 35.4535C13.7517 34.9765 13.1201 34.702 12.4567 34.6903C11.7933 34.6786 11.1524 34.9307 10.675 35.391V35.3161ZM25 14.9856C23.0222 14.9856 21.0888 15.5715 19.4443 16.6693C17.7998 17.7671 16.5181 19.3274 15.7612 21.1529C15.0043 22.9784 14.8063 24.9871 15.1921 26.9251C15.578 28.863 16.5304 30.6431 17.9289 32.0403C19.3275 33.4375 21.1093 34.389 23.0491 34.7745C24.9889 35.16 26.9996 34.9621 28.8268 34.206C30.6541 33.4498 32.2159 32.1693 33.3147 30.5264C34.4135 28.8835 35 26.9519 35 24.976C35 22.3264 33.9464 19.7853 32.0711 17.9117C30.1957 16.0382 27.6522 14.9856 25 14.9856ZM25 29.9712C24.0111 29.9712 23.0444 29.6783 22.2221 29.1294C21.3999 28.5805 20.759 27.8004 20.3806 26.8876C20.0022 25.9749 19.9031 24.9705 20.0961 24.0015C20.289 23.0325 20.7652 22.1425 21.4645 21.4439C22.1637 20.7453 23.0546 20.2695 24.0245 20.0768C24.9945 19.8841 25.9998 19.983 26.9134 20.3611C27.827 20.7391 28.6079 21.3794 29.1573 22.2008C29.7068 23.0223 30 23.9881 30 24.976C30 26.3008 29.4732 27.5714 28.5355 28.5082C27.5979 29.445 26.3261 29.9712 25 29.9712Z" fill="#E7E0EC"/>
</svg>
