<svg width="76" height="76" viewBox="0 0 76 76" fill="none" xmlns="http://www.w3.org/2000/svg">
<path d="M14.63 57.38C17.86 54.91 21.47 52.9625 25.46 51.5375C29.45 50.1125 33.63 49.4 38 49.4C42.37 49.4 46.55 50.1125 50.54 51.5375C54.53 52.9625 58.14 54.91 61.37 57.38C63.5867 54.7833 65.3125 51.8383 66.5475 48.545C67.7825 45.2517 68.4 41.7367 68.4 38C68.4 29.5767 65.4392 22.4042 59.5175 16.4825C53.5958 10.5608 46.4233 7.6 38 7.6C29.5767 7.6 22.4042 10.5608 16.4825 16.4825C10.5608 22.4042 7.6 29.5767 7.6 38C7.6 41.7367 8.2175 45.2517 9.4525 48.545C10.6875 51.8383 12.4133 54.7833 14.63 57.38ZM38 41.8C34.2633 41.8 31.1125 40.5175 28.5475 37.9525C25.9825 35.3875 24.7 32.2367 24.7 28.5C24.7 24.7633 25.9825 21.6125 28.5475 19.0475C31.1125 16.4825 34.2633 15.2 38 15.2C41.7367 15.2 44.8875 16.4825 47.4525 19.0475C50.0175 21.6125 51.3 24.7633 51.3 28.5C51.3 32.2367 50.0175 35.3875 47.4525 37.9525C44.8875 40.5175 41.7367 41.8 38 41.8ZM38 76C32.7433 76 27.8033 75.0025 23.18 73.0075C18.5567 71.0125 14.535 68.305 11.115 64.885C7.695 61.465 4.9875 57.4433 2.9925 52.82C0.9975 48.1967 0 43.2567 0 38C0 32.7433 0.9975 27.8033 2.9925 23.18C4.9875 18.5567 7.695 14.535 11.115 11.115C14.535 7.695 18.5567 4.9875 23.18 2.9925C27.8033 0.9975 32.7433 0 38 0C43.2567 0 48.1967 0.9975 52.82 2.9925C57.4433 4.9875 61.465 7.695 64.885 11.115C68.305 14.535 71.0125 18.5567 73.0075 23.18C75.0025 27.8033 76 32.7433 76 38C76 43.2567 75.0025 48.1967 73.0075 52.82C71.0125 57.4433 68.305 61.465 64.885 64.885C61.465 68.305 57.4433 71.0125 52.82 73.0075C48.1967 75.0025 43.2567 76 38 76Z" fill="#E7E0EC"/>
</svg>
