<svg width="23" height="24" viewBox="0 0 23 24" fill="none" xmlns="http://www.w3.org/2000/svg">
<path d="M11.5 0.5C9.22552 0.5 7.00211 1.17446 5.11095 2.4381C3.21978 3.70173 1.7458 5.49779 0.87539 7.59914C0.00498277 9.70049 -0.222756 12.0128 0.220974 14.2435C0.664704 16.4743 1.75997 18.5234 3.36828 20.1317C4.97658 21.74 7.02568 22.8353 9.25646 23.279C11.4872 23.7228 13.7995 23.495 15.9009 22.6246C18.0022 21.7542 19.7983 20.2802 21.0619 18.3891C22.3255 16.4979 23 14.2745 23 12C23 10.4898 22.7025 8.99438 22.1246 7.59914C21.5467 6.20389 20.6996 4.93614 19.6317 3.86827C18.5639 2.8004 17.2961 1.95331 15.9009 1.37539C14.5056 0.797456 13.0102 0.5 11.5 0.5ZM11.5 21.2C9.68042 21.2 7.90169 20.6604 6.38876 19.6495C4.87583 18.6386 3.69664 17.2018 3.00031 15.5207C2.30399 13.8396 2.1218 11.9898 2.47678 10.2052C2.83176 8.42054 3.70798 6.78126 4.99462 5.49462C6.28126 4.20797 7.92055 3.33176 9.70517 2.97677C11.4898 2.62179 13.3396 2.80398 15.0207 3.50031C16.7018 4.19663 18.1386 5.37582 19.1495 6.88875C20.1604 8.40168 20.7 10.1804 20.7 12C20.7 14.44 19.7307 16.78 18.0054 18.5054C16.2801 20.2307 13.94 21.2 11.5 21.2Z" fill="#E7E0EC"/>
<path d="M11.4942 5.50007C10.5675 5.50007 9.67871 5.90979 9.02342 6.6391C8.36814 7.3684 8 8.35754 8 9.38893C8 9.68362 8.10518 9.96623 8.29241 10.1746C8.47963 10.383 8.73356 10.5 8.99834 10.5C9.26311 10.5 9.51704 10.383 9.70427 10.1746C9.89149 9.96623 9.99667 9.68362 9.99667 9.38893C9.99667 9.0593 10.0845 8.73707 10.249 8.46299C10.4136 8.18891 10.6475 7.97529 10.9211 7.84915C11.1947 7.723 11.4958 7.69 11.7863 7.7543C12.0768 7.81861 12.3436 7.97735 12.5531 8.21043C12.7625 8.44352 12.9051 8.74049 12.9629 9.06379C13.0207 9.38708 12.991 9.72219 12.8777 10.0267C12.7643 10.3313 12.5724 10.5916 12.3261 10.7747C12.0799 10.9578 11.7904 11.0556 11.4942 11.0556C11.2294 11.0556 10.9755 11.1727 10.7882 11.381C10.601 11.5894 10.4958 11.872 10.4958 12.1667V14.3889C10.4958 14.6836 10.601 14.9662 10.7882 15.1746C10.9755 15.3829 11.2294 15.5 11.4942 15.5C11.759 15.5 12.0129 15.3829 12.2001 15.1746C12.3873 14.9662 12.4925 14.6836 12.4925 14.3889V13.1C13.2993 12.8378 13.9937 12.2599 14.4477 11.4727C14.9018 10.6856 15.0849 9.74234 14.9633 8.81679C14.8418 7.89124 14.4237 7.04579 13.7861 6.43628C13.1486 5.82677 12.3346 5.49427 11.4942 5.50007Z" fill="#E7E0EC"/>
<path d="M11.5 18.5C12.3284 18.5 13 18.0523 13 17.5C13 16.9477 12.3284 16.5 11.5 16.5C10.6716 16.5 10 16.9477 10 17.5C10 18.0523 10.6716 18.5 11.5 18.5Z" fill="#E7E0EC"/>
</svg>
