<svg width="22" height="17" viewBox="0 0 22 17" fill="none" xmlns="http://www.w3.org/2000/svg">
<path d="M15.2398 4.25999C15.7977 4.81723 16.2402 5.47896 16.5422 6.20735C16.8441 6.93574 16.9995 7.7165 16.9995 8.50499C16.9995 9.29349 16.8441 10.0742 16.5422 10.8026C16.2402 11.531 15.7977 12.1928 15.2398 12.75M6.75982 12.74C6.20196 12.1828 5.75941 11.521 5.45746 10.7926C5.15551 10.0642 5.0001 9.28349 5.0001 8.49499C5.0001 7.7065 5.15551 6.92574 5.45746 6.19735C5.75941 5.46896 6.20196 4.80723 6.75982 4.24999M18.0698 1.42999C19.9445 3.30527 20.9977 5.84835 20.9977 8.49999C20.9977 11.1516 19.9445 13.6947 18.0698 15.57M3.92982 15.57C2.05511 13.6947 1.00195 11.1516 1.00195 8.49999C1.00195 5.84835 2.05511 3.30527 3.92982 1.42999M12.9998 8.49999C12.9998 9.60456 12.1044 10.5 10.9998 10.5C9.89525 10.5 8.99982 9.60456 8.99982 8.49999C8.99982 7.39542 9.89525 6.49999 10.9998 6.49999C12.1044 6.49999 12.9998 7.39542 12.9998 8.49999Z" stroke="#E7E0EC" stroke-width="2" stroke-linecap="round" stroke-linejoin="round"/>
</svg>
