<svg xmlns="http://www.w3.org/2000/svg" xmlns:xlink="http://www.w3.org/1999/xlink" width="500" zoomAndPan="magnify" viewBox="0 0 375 374.999991" height="500" preserveAspectRatio="xMidYMid meet" version="1.0"><defs><g/><clipPath id="2ca3ff1735"><path d="M 4.683594 159.859375 L 59.96875 159.859375 L 59.96875 215.140625 L 4.683594 215.140625 Z M 4.683594 159.859375 " clip-rule="nonzero"/></clipPath><clipPath id="8e72d82d8d"><path d="M 32.324219 159.859375 C 17.058594 159.859375 4.683594 172.234375 4.683594 187.5 C 4.683594 202.765625 17.058594 215.140625 32.324219 215.140625 C 47.59375 215.140625 59.96875 202.765625 59.96875 187.5 C 59.96875 172.234375 47.59375 159.859375 32.324219 159.859375 Z M 32.324219 159.859375 " clip-rule="nonzero"/></clipPath><clipPath id="a832f65a91"><path d="M 4.683594 159.859375 L 59.960938 159.859375 L 59.960938 215.136719 L 4.683594 215.136719 Z M 4.683594 159.859375 " clip-rule="nonzero"/></clipPath><clipPath id="33a3d366f8"><path d="M 32.324219 159.859375 C 17.058594 159.859375 4.683594 172.230469 4.683594 187.496094 C 4.683594 202.761719 17.058594 215.136719 32.324219 215.136719 C 47.585938 215.136719 59.960938 202.761719 59.960938 187.496094 C 59.960938 172.230469 47.585938 159.859375 32.324219 159.859375 Z M 32.324219 159.859375 " clip-rule="nonzero"/></clipPath><clipPath id="6f300a588a"><path d="M 315.03125 159.859375 L 370.316406 159.859375 L 370.316406 215.140625 L 315.03125 215.140625 Z M 315.03125 159.859375 " clip-rule="nonzero"/></clipPath><clipPath id="9c7f066d42"><path d="M 342.675781 159.859375 C 327.40625 159.859375 315.03125 172.234375 315.03125 187.5 C 315.03125 202.765625 327.40625 215.140625 342.675781 215.140625 C 357.941406 215.140625 370.316406 202.765625 370.316406 187.5 C 370.316406 172.234375 357.941406 159.859375 342.675781 159.859375 Z M 342.675781 159.859375 " clip-rule="nonzero"/></clipPath><clipPath id="0fba76b430"><path d="M 315.03125 159.859375 L 370.308594 159.859375 L 370.308594 215.136719 L 315.03125 215.136719 Z M 315.03125 159.859375 " clip-rule="nonzero"/></clipPath><clipPath id="a902a7b30b"><path d="M 342.671875 159.859375 C 327.40625 159.859375 315.03125 172.230469 315.03125 187.496094 C 315.03125 202.761719 327.40625 215.136719 342.671875 215.136719 C 357.933594 215.136719 370.308594 202.761719 370.308594 187.496094 C 370.308594 172.230469 357.933594 159.859375 342.671875 159.859375 Z M 342.671875 159.859375 " clip-rule="nonzero"/></clipPath><clipPath id="ae7abd6d1c"><path d="M 159.859375 315.027344 L 215.140625 315.027344 L 215.140625 370.308594 L 159.859375 370.308594 Z M 159.859375 315.027344 " clip-rule="nonzero"/></clipPath><clipPath id="b7a4e344ec"><path d="M 159.859375 342.667969 C 159.859375 357.933594 172.234375 370.308594 187.5 370.308594 C 202.765625 370.308594 215.140625 357.933594 215.140625 342.667969 C 215.140625 327.402344 202.765625 315.027344 187.5 315.027344 C 172.234375 315.027344 159.859375 327.402344 159.859375 342.667969 Z M 159.859375 342.667969 " clip-rule="nonzero"/></clipPath><clipPath id="f6ebadc41b"><path d="M 159.859375 315.03125 L 215.136719 315.03125 L 215.136719 370.308594 L 159.859375 370.308594 Z M 159.859375 315.03125 " clip-rule="nonzero"/></clipPath><clipPath id="ec1fddf890"><path d="M 159.859375 342.671875 C 159.859375 357.933594 172.230469 370.308594 187.496094 370.308594 C 202.761719 370.308594 215.136719 357.933594 215.136719 342.671875 C 215.136719 327.40625 202.761719 315.03125 187.496094 315.03125 C 172.230469 315.03125 159.859375 327.40625 159.859375 342.671875 Z M 159.859375 342.671875 " clip-rule="nonzero"/></clipPath><clipPath id="f318e59322"><path d="M 159.859375 4.675781 L 215.140625 4.675781 L 215.140625 59.960938 L 159.859375 59.960938 Z M 159.859375 4.675781 " clip-rule="nonzero"/></clipPath><clipPath id="90cd3c7aa3"><path d="M 159.859375 32.320312 C 159.859375 47.585938 172.234375 59.960938 187.5 59.960938 C 202.765625 59.960938 215.140625 47.585938 215.140625 32.320312 C 215.140625 17.054688 202.765625 4.675781 187.5 4.675781 C 172.234375 4.675781 159.859375 17.054688 159.859375 32.320312 Z M 159.859375 32.320312 " clip-rule="nonzero"/></clipPath><clipPath id="f65f12ae62"><path d="M 159.859375 4.683594 L 215.136719 4.683594 L 215.136719 59.960938 L 159.859375 59.960938 Z M 159.859375 4.683594 " clip-rule="nonzero"/></clipPath><clipPath id="e01d38be15"><path d="M 159.859375 32.324219 C 159.859375 47.585938 172.230469 59.960938 187.496094 59.960938 C 202.761719 59.960938 215.136719 47.585938 215.136719 32.324219 C 215.136719 17.058594 202.761719 4.683594 187.496094 4.683594 C 172.230469 4.683594 159.859375 17.058594 159.859375 32.324219 Z M 159.859375 32.324219 " clip-rule="nonzero"/></clipPath><clipPath id="ffa88e5d0a"><path d="M 39 39 L 100 39 L 100 100 L 39 100 Z M 39 39 " clip-rule="nonzero"/></clipPath><clipPath id="26257fcf63"><path d="M 69.253906 27.476562 L 111.363281 69.5 L 69.339844 111.613281 L 27.226562 69.585938 Z M 69.253906 27.476562 " clip-rule="nonzero"/></clipPath><clipPath id="f64e588dee"><path d="M 90.308594 48.488281 C 78.679688 36.882812 59.84375 36.902344 48.242188 48.53125 C 36.636719 60.160156 36.65625 78.996094 48.285156 90.597656 C 59.914062 102.203125 78.746094 102.183594 90.351562 90.554688 C 101.957031 78.929688 101.9375 60.09375 90.308594 48.488281 Z M 90.308594 48.488281 " clip-rule="nonzero"/></clipPath><clipPath id="6b7ad989be"><path d="M 39 39 L 100 39 L 100 100 L 39 100 Z M 39 39 " clip-rule="nonzero"/></clipPath><clipPath id="ee2aadb282"><path d="M 69.253906 27.476562 L 111.191406 69.328125 L 69.339844 111.269531 L 27.398438 69.414062 Z M 69.253906 27.476562 " clip-rule="nonzero"/></clipPath><clipPath id="ed4715eafa"><path d="M 69.253906 27.476562 L 111.359375 69.496094 L 69.339844 111.601562 L 27.234375 69.582031 Z M 69.253906 27.476562 " clip-rule="nonzero"/></clipPath><clipPath id="6506ac1385"><path d="M 90.304688 48.484375 C 78.679688 36.882812 59.847656 36.902344 48.242188 48.527344 C 36.640625 60.15625 36.660156 78.988281 48.285156 90.589844 C 59.914062 102.195312 78.746094 102.175781 90.347656 90.546875 C 101.953125 78.921875 101.933594 60.089844 90.304688 48.484375 Z M 90.304688 48.484375 " clip-rule="nonzero"/></clipPath><clipPath id="b0f054d719"><path d="M 275 275 L 336 275 L 336 336 L 275 336 Z M 275 275 " clip-rule="nonzero"/></clipPath><clipPath id="3885178674"><path d="M 305.652344 263.390625 L 347.761719 305.417969 L 305.738281 347.527344 L 263.628906 305.503906 Z M 305.652344 263.390625 " clip-rule="nonzero"/></clipPath><clipPath id="8983f44497"><path d="M 326.707031 284.402344 C 315.078125 272.800781 296.246094 272.820312 284.640625 284.445312 C 273.035156 296.074219 273.054688 314.910156 284.683594 326.515625 C 296.3125 338.121094 315.144531 338.101562 326.75 326.472656 C 338.355469 314.84375 338.335938 296.007812 326.707031 284.402344 Z M 326.707031 284.402344 " clip-rule="nonzero"/></clipPath><clipPath id="1096a7409a"><path d="M 275 275 L 336 275 L 336 336 L 275 336 Z M 275 275 " clip-rule="nonzero"/></clipPath><clipPath id="946ea4298e"><path d="M 305.652344 263.390625 L 347.589844 305.246094 L 305.738281 347.183594 L 263.800781 305.332031 Z M 305.652344 263.390625 " clip-rule="nonzero"/></clipPath><clipPath id="11e97d8b5b"><path d="M 305.652344 263.390625 L 347.757812 305.410156 L 305.738281 347.515625 L 263.632812 305.496094 Z M 305.652344 263.390625 " clip-rule="nonzero"/></clipPath><clipPath id="35272fd178"><path d="M 326.703125 284.402344 C 315.078125 272.796875 296.246094 272.816406 284.644531 284.445312 C 273.039062 296.070312 273.058594 314.902344 284.6875 326.507812 C 296.3125 338.109375 315.144531 338.089844 326.746094 326.460938 C 338.351562 314.835938 338.332031 296.003906 326.703125 284.402344 Z M 326.703125 284.402344 " clip-rule="nonzero"/></clipPath><clipPath id="87215283c3"><path d="M 39 275 L 100 275 L 100 336 L 39 336 Z M 39 275 " clip-rule="nonzero"/></clipPath><clipPath id="eb20b2836f"><path d="M 27.476562 305.738281 L 69.5 263.628906 L 111.613281 305.652344 L 69.585938 347.761719 Z M 27.476562 305.738281 " clip-rule="nonzero"/></clipPath><clipPath id="84dd0f770e"><path d="M 48.488281 284.683594 C 36.882812 296.3125 36.902344 315.144531 48.53125 326.75 C 60.160156 338.355469 78.996094 338.335938 90.597656 326.707031 C 102.203125 315.078125 102.183594 296.246094 90.554688 284.640625 C 78.929688 273.035156 60.09375 273.054688 48.488281 284.683594 Z M 48.488281 284.683594 " clip-rule="nonzero"/></clipPath><clipPath id="b5c1259135"><path d="M 39 275 L 100 275 L 100 336 L 39 336 Z M 39 275 " clip-rule="nonzero"/></clipPath><clipPath id="3a84d98286"><path d="M 27.476562 305.738281 L 69.328125 263.800781 L 111.269531 305.652344 L 69.414062 347.589844 Z M 27.476562 305.738281 " clip-rule="nonzero"/></clipPath><clipPath id="8bb517d5e7"><path d="M 27.476562 305.738281 L 69.496094 263.632812 L 111.601562 305.652344 L 69.582031 347.757812 Z M 27.476562 305.738281 " clip-rule="nonzero"/></clipPath><clipPath id="9a80e1b2ba"><path d="M 48.484375 284.6875 C 36.882812 296.3125 36.902344 315.144531 48.527344 326.746094 C 60.15625 338.351562 78.988281 338.332031 90.589844 326.703125 C 102.195312 315.078125 102.175781 296.246094 90.546875 284.644531 C 78.921875 273.039062 60.089844 273.058594 48.484375 284.6875 Z M 48.484375 284.6875 " clip-rule="nonzero"/></clipPath><clipPath id="d69fade047"><path d="M 275 39 L 336 39 L 336 100 L 275 100 Z M 275 39 " clip-rule="nonzero"/></clipPath><clipPath id="a41cdd8442"><path d="M 263.390625 69.339844 L 305.417969 27.226562 L 347.527344 69.253906 L 305.503906 111.363281 Z M 263.390625 69.339844 " clip-rule="nonzero"/></clipPath><clipPath id="34de9bba5a"><path d="M 284.402344 48.285156 C 272.800781 59.914062 272.820312 78.746094 284.445312 90.351562 C 296.074219 101.957031 314.910156 101.9375 326.515625 90.308594 C 338.121094 78.679688 338.101562 59.84375 326.472656 48.242188 C 314.84375 36.636719 296.007812 36.65625 284.402344 48.285156 Z M 284.402344 48.285156 " clip-rule="nonzero"/></clipPath><clipPath id="173cb8c7bd"><path d="M 275 39 L 336 39 L 336 100 L 275 100 Z M 275 39 " clip-rule="nonzero"/></clipPath><clipPath id="e172e02c00"><path d="M 263.390625 69.339844 L 305.246094 27.398438 L 347.183594 69.253906 L 305.332031 111.191406 Z M 263.390625 69.339844 " clip-rule="nonzero"/></clipPath><clipPath id="e13cb65221"><path d="M 263.390625 69.339844 L 305.410156 27.234375 L 347.515625 69.253906 L 305.496094 111.359375 Z M 263.390625 69.339844 " clip-rule="nonzero"/></clipPath><clipPath id="06df4aea34"><path d="M 284.402344 48.285156 C 272.796875 59.914062 272.816406 78.746094 284.445312 90.347656 C 296.070312 101.953125 314.902344 101.933594 326.507812 90.304688 C 338.109375 78.679688 338.089844 59.847656 326.460938 48.242188 C 314.835938 36.640625 296.003906 36.660156 284.402344 48.285156 Z M 284.402344 48.285156 " clip-rule="nonzero"/></clipPath></defs><g fill="#ffffff" fill-opacity="1"><g transform="translate(112.388859, 210.776279)"><g><path d="M 7.90625 0.90625 L 6.546875 -0.125 L 5.921875 -1.28125 L 5.859375 -2.546875 L 5.78125 -3.640625 L 6.0625 -4.71875 L 6.9375 -6.4375 L 7.65625 -8.203125 L 7.9375 -9.4375 L 8.234375 -10.515625 L 9.15625 -12.78125 L 9.40625 -15.5 L 10.359375 -17.75 L 10.46875 -19.015625 L 10.75 -20.078125 L 11.3125 -22.390625 L 11.8125 -23.96875 L 12 -26.140625 L 13.140625 -28.578125 L 13.609375 -29.640625 L 14.265625 -30.828125 L 14.1875 -31.921875 L 14.9375 -34.234375 L 15.609375 -35.4375 L 15.703125 -36.515625 L 15.984375 -37.578125 L 16.578125 -40.0625 L 17.015625 -41.125 L 17.25 -43.640625 L 17.515625 -44.703125 L 17.828125 -45.9375 L 17.921875 -47.03125 L 18.875 -49.484375 L 18.984375 -50.75 L 20.125 -53.171875 L 21.359375 -58.515625 L 22.3125 -60.96875 L 22.390625 -61.875 L 23.90625 -66.8125 L 24.484375 -69.125 L 25.0625 -71.234375 L 26.171875 -73.515625 L 26.484375 -74.9375 L 26.71875 -77.46875 L 27.84375 -79.71875 L 27.953125 -80.984375 L 28.5 -83.109375 L 29.390625 -86.828125 L 29.328125 -88.296875 L 30.015625 -89.671875 L 30.96875 -92.140625 L 31.453125 -93.546875 L 31.203125 -94.84375 L 31.703125 -96.25 L 32.109375 -98.578125 L 32.640625 -100.515625 L 33.46875 -101.546875 L 33.578125 -102.8125 L 33.875 -104.03125 L 33.984375 -105.109375 L 34.796875 -106.3125 L 35.25 -109.171875 L 36.0625 -112 L 36.96875 -114.109375 L 37.34375 -116.25 L 37.46875 -117.515625 L 37.9375 -118.5625 L 39.15625 -122.078125 L 39.78125 -123.109375 L 42.71875 -123.203125 L 47.03125 -122.8125 L 53.671875 -122.015625 L 60.703125 -121.375 L 64.28125 -120.859375 L 64.640625 -118.65625 L 64.328125 -117.40625 L 64.21875 -116.140625 L 62.75 -111.9375 L 62.625 -110.671875 L 62.171875 -109.609375 L 61.28125 -105.875 L 60.734375 -103.9375 L 60.203125 -102.15625 L 58.1875 -96 L 57.421875 -93.53125 L 57.28125 -92.09375 L 56.34375 -89.640625 L 55.75 -87.140625 L 54.90625 -85.953125 L 55.140625 -84.46875 L 54.640625 -83.0625 L 54.359375 -81.8125 L 53.890625 -80.59375 L 53.109375 -78.125 L 52.359375 -75.84375 L 51.515625 -74.640625 L 51.5625 -73.171875 L 51.09375 -71.953125 L 50.953125 -70.515625 L 50.0625 -66.78125 L 49.59375 -65.546875 L 49.359375 -63.03125 L 48.890625 -61.8125 L 48.109375 -59.15625 L 47.796875 -57.90625 L 46.8125 -55.09375 L 46.390625 -52.40625 L 45.625 -49.9375 L 45.296875 -48.5 L 45.015625 -47.25 L 44.015625 -44.453125 L 43.90625 -43.1875 L 43.40625 -41.796875 L 43 -39.28125 L 42.078125 -37 L 41.6875 -34.6875 L 41.1875 -33.09375 L 41.015625 -31.296875 L 40.71875 -30.046875 L 40.421875 -28.96875 L 39.953125 -27.75 L 39.59375 -25.78125 L 39.078125 -24.015625 L 38.90625 -22.21875 L 39.71875 -21.234375 L 41.515625 -21.078125 L 43.125 -20.734375 L 52.484375 -19.875 L 56.46875 -19.703125 L 61.15625 -19.28125 L 62.1875 -18.640625 L 61.765625 -15.9375 L 61.265625 -14.71875 L 61.34375 -13.4375 L 60.671875 -12.0625 L 59.1875 -5.84375 L 58.546875 -4.625 L 58.4375 -3.375 L 58.140625 -2.296875 L 57.53125 0.375 L 56.5625 3.203125 L 54.984375 4.3125 L 51.5625 4 L 49.203125 4.140625 L 45.1875 4.328125 L 41.96875 3.84375 L 39.234375 3.78125 L 36.75 3.1875 L 33.140625 3.03125 L 18.375 1.6875 L 16.5625 1.703125 L 11.515625 1.25 L 10.265625 0.9375 Z M 7.90625 0.90625 "/></g></g></g><g fill="#ffffff" fill-opacity="1"><g transform="translate(166.442245, 286.212283)"><g><path d="M 24.625 2.4375 L 22.875 1.703125 L 21.484375 1.609375 L 19.8125 -0.125 L 20.4375 -3.078125 L 20.9375 -7.234375 L 22.65625 -11.328125 L 23.140625 -12.671875 L 23.578125 -15.65625 L 24.0625 -16.8125 L 24.46875 -19.578125 L 24.5625 -20.984375 L 25.765625 -23.671875 L 26.078125 -25.0625 L 26 -26.671875 L 27.3125 -30.765625 L 27.421875 -32.359375 L 28.1875 -34.703125 L 29.015625 -37.65625 L 29.515625 -39.015625 L 29.8125 -40.390625 L 30.40625 -42.953125 L 30.890625 -44.109375 L 31.3125 -46.875 L 32.453125 -48.796875 L 32.1875 -50.8125 L 32.5 -52.1875 L 33 -53.546875 L 34.203125 -56.28125 L 35.21875 -59.1875 L 35.71875 -60.5625 L 35.4375 -61.984375 L 36.59375 -64.28125 L 37.09375 -65.453125 L 37.296875 -68.234375 L 38.03125 -70.171875 L 38.171875 -71.96875 L 38.671875 -73.328125 L 39.5625 -74.46875 L 39.671875 -75.875 L 40.15625 -77.03125 L 40.96875 -79.96875 L 40.890625 -81.375 L 42.03125 -83.5 L 42.171875 -85.46875 L 42.65625 -86.4375 L 42.78125 -88.03125 L 43.09375 -89.421875 L 43.5625 -90.765625 L 44.796875 -93.890625 L 45.09375 -95.078125 L 45.1875 -96.25 L 45.484375 -97.640625 L 45.578125 -98.828125 L 46.359375 -101.359375 L 46.875 -102.734375 L 47.484375 -105.6875 L 47.921875 -108.859375 L 37.171875 -109.65625 L 34.40625 -110.0625 L 33 -109.96875 L 31.203125 -110.109375 L 29.234375 -110.4375 L 27.640625 -110.5625 L 25.90625 -111.296875 L 25.4375 -113.140625 L 26.015625 -115.484375 L 26.734375 -117.046875 L 26.84375 -118.640625 L 26.75 -120.03125 L 27.75 -122.765625 L 28.25 -123.9375 L 28.65625 -126.703125 L 29.640625 -129.234375 L 30.3125 -130.359375 L 30.53125 -133.15625 L 30.8125 -134.34375 L 31.984375 -136.453125 L 33.875 -137.703125 L 35.28125 -137.796875 L 40.453125 -137.421875 L 41.421875 -137.140625 L 42.8125 -137.03125 L 44.234375 -137.140625 L 58.9375 -136.03125 L 60.328125 -135.734375 L 64.703125 -135.40625 L 77.453125 -134.65625 L 80.421875 -134.234375 L 84.609375 -134.125 L 86.375 -133.78125 L 98.71875 -132.875 L 101.5 -132.46875 L 103.265625 -131.9375 L 103.53125 -130.328125 L 103.4375 -129.125 L 103.140625 -127.75 L 102.625 -126.1875 L 102.515625 -124.796875 L 102.25 -123.625 L 101.75 -122.234375 L 101.65625 -121.046875 L 101.078125 -118.703125 L 100.578125 -117.328125 L 100.296875 -116.15625 L 99.90625 -113.78125 L 98.921875 -111.25 L 98.40625 -109.890625 L 98.015625 -107.125 L 97.078125 -105.390625 L 95.078125 -105.34375 L 93.296875 -105.671875 L 90.90625 -105.84375 L 89.109375 -105.796875 L 87.109375 -105.9375 L 78.765625 -106.75 L 76.96875 -106.703125 L 76.46875 -105.3125 L 76.578125 -104.125 L 75.875 -102.765625 L 75.796875 -101.578125 L 75.296875 -100.40625 L 74.71875 -97.859375 L 74.40625 -96.484375 L 73.34375 -92.96875 L 72.421875 -91.4375 L 72.75 -90.40625 L 71.546875 -87.6875 L 70.578125 -85.15625 L 70.484375 -83.96875 L 70.109375 -81.59375 L 69.8125 -80.421875 L 69.71875 -79.015625 L 68.53125 -76.703125 L 67.921875 -73.765625 L 67.40625 -72.390625 L 66.609375 -69.65625 L 65.90625 -68.5 L 65.8125 -67.09375 L 65.421875 -64.53125 L 64.640625 -62.1875 L 63.75 -60.859375 L 63.359375 -58.09375 L 62.859375 -56.9375 L 62.78125 -55.734375 L 61.96875 -53 L 61.140625 -50.0625 L 60.625 -48.296875 L 60.46875 -46.296875 L 60.171875 -45.109375 L 59.703125 -43.953125 L 59.390625 -42.578125 L 58.421875 -40.25 L 58.109375 -38.875 L 57.8125 -37.703125 L 57.921875 -36.296875 L 57.109375 -33.546875 L 56.265625 -30.421875 L 55.296875 -27.890625 L 55 -26.515625 L 54.203125 -23.96875 L 52.890625 -19.859375 L 52.375 -18.296875 L 51.578125 -15.5625 L 51.640625 -13.953125 L 50.328125 -9.65625 L 48.71875 -4.171875 L 48.109375 -1.40625 L 47.3125 1.328125 L 46.828125 2.484375 L 44.359375 3.3125 L 27.046875 2.015625 Z M 24.625 2.4375 "/></g></g></g><g clip-path="url(#2ca3ff1735)"><g clip-path="url(#8e72d82d8d)"><path fill="#ffffff" d="M 4.683594 159.859375 L 59.96875 159.859375 L 59.96875 215.140625 L 4.683594 215.140625 Z M 4.683594 159.859375 " fill-opacity="1" fill-rule="nonzero"/></g></g><g clip-path="url(#a832f65a91)"><g clip-path="url(#33a3d366f8)"><path stroke-linecap="butt" transform="matrix(0.75, 0, 0, 0.75, 4.683642, 159.857992)" fill="none" stroke-linejoin="miter" d="M 36.854105 0.00184413 C 16.499937 0.00184413 -0.0000638433 16.496637 -0.0000638433 36.850805 C -0.0000638433 57.204973 16.499937 73.704974 36.854105 73.704974 C 57.203065 73.704974 73.703066 57.204973 73.703066 36.850805 C 73.703066 16.496637 57.203065 0.00184413 36.854105 0.00184413 Z M 36.854105 0.00184413 " stroke="#a6a6a6" stroke-width="2" stroke-opacity="1" stroke-miterlimit="4"/></g></g><g clip-path="url(#6f300a588a)"><g clip-path="url(#9c7f066d42)"><path fill="#ffffff" d="M 315.03125 159.859375 L 370.316406 159.859375 L 370.316406 215.140625 L 315.03125 215.140625 Z M 315.03125 159.859375 " fill-opacity="1" fill-rule="nonzero"/></g></g><g clip-path="url(#0fba76b430)"><g clip-path="url(#a902a7b30b)"><path stroke-linecap="butt" transform="matrix(0.75, 0, 0, 0.75, 315.032357, 159.857992)" fill="none" stroke-linejoin="miter" d="M 36.852693 0.00184413 C 16.498525 0.00184413 -0.00147655 16.496637 -0.00147655 36.850805 C -0.00147655 57.204973 16.498525 73.704974 36.852693 73.704974 C 57.201652 73.704974 73.701653 57.204973 73.701653 36.850805 C 73.701653 16.496637 57.201652 0.00184413 36.852693 0.00184413 Z M 36.852693 0.00184413 " stroke="#a6a6a6" stroke-width="2" stroke-opacity="1" stroke-miterlimit="4"/></g></g><g clip-path="url(#ae7abd6d1c)"><g clip-path="url(#b7a4e344ec)"><path fill="#ffffff" d="M 159.859375 370.308594 L 159.859375 315.027344 L 215.140625 315.027344 L 215.140625 370.308594 Z M 159.859375 370.308594 " fill-opacity="1" fill-rule="nonzero"/></g></g><g clip-path="url(#f6ebadc41b)"><g clip-path="url(#ec1fddf890)"><path stroke-linecap="butt" transform="matrix(0, -0.75, 0.75, 0, 159.857996, 370.309692)" fill="none" stroke-linejoin="miter" d="M 36.850425 0.00183813 C 16.501465 0.00183813 0.00146391 16.496631 0.00146391 36.850799 C 0.00146391 57.204967 16.501465 73.704968 36.850425 73.704968 C 57.204593 73.704968 73.704594 57.204967 73.704594 36.850799 C 73.704594 16.496631 57.204593 0.00183813 36.850425 0.00183813 Z M 36.850425 0.00183813 " stroke="#a6a6a6" stroke-width="2" stroke-opacity="1" stroke-miterlimit="4"/></g></g><g clip-path="url(#f318e59322)"><g clip-path="url(#90cd3c7aa3)"><path fill="#ffffff" d="M 159.859375 59.960938 L 159.859375 4.675781 L 215.140625 4.675781 L 215.140625 59.960938 Z M 159.859375 59.960938 " fill-opacity="1" fill-rule="nonzero"/></g></g><g clip-path="url(#f65f12ae62)"><g clip-path="url(#e01d38be15)"><path stroke-linecap="butt" transform="matrix(0, -0.75, 0.75, 0, 159.857996, 59.960977)" fill="none" stroke-linejoin="miter" d="M 36.849013 0.00183813 C 16.500054 0.00183813 0.0000524834 16.496631 0.0000524834 36.850799 C 0.0000524834 57.204967 16.500054 73.704968 36.849013 73.704968 C 57.203181 73.704968 73.703182 57.204967 73.703182 36.850799 C 73.703182 16.496631 57.203181 0.00183813 36.849013 0.00183813 Z M 36.849013 0.00183813 " stroke="#a6a6a6" stroke-width="2" stroke-opacity="1" stroke-miterlimit="4"/></g></g><g clip-path="url(#ffa88e5d0a)"><g clip-path="url(#26257fcf63)"><g clip-path="url(#f64e588dee)"><path fill="#ffffff" d="M 69.253906 27.476562 L 111.363281 69.5 L 69.339844 111.613281 L 27.226562 69.585938 Z M 69.253906 27.476562 " fill-opacity="1" fill-rule="nonzero"/></g></g></g><g clip-path="url(#6b7ad989be)"><g clip-path="url(#ee2aadb282)"><g clip-path="url(#ed4715eafa)"><g clip-path="url(#6506ac1385)"><path stroke-linecap="butt" transform="matrix(0.530873, 0.529787, -0.529787, 0.530873, 69.253097, 27.476083)" fill="none" stroke-linejoin="miter" d="M 39.654462 -0.000231687 C 17.756236 -0.000550041 0.00145516 17.75471 -0.00254981 39.656615 C 0.000810914 61.558528 17.756071 79.313308 39.654297 79.313627 C 61.559889 79.313953 79.314669 61.558692 79.311309 39.65678 C 79.315314 17.754875 61.560053 0.0000942064 39.654462 -0.000231687 Z M 39.654462 -0.000231687 " stroke="#a6a6a6" stroke-width="2" stroke-opacity="1" stroke-miterlimit="4"/></g></g></g></g><g clip-path="url(#b0f054d719)"><g clip-path="url(#3885178674)"><g clip-path="url(#8983f44497)"><path fill="#ffffff" d="M 305.652344 263.390625 L 347.761719 305.417969 L 305.738281 347.527344 L 263.628906 305.503906 Z M 305.652344 263.390625 " fill-opacity="1" fill-rule="nonzero"/></g></g></g><g clip-path="url(#1096a7409a)"><g clip-path="url(#946ea4298e)"><g clip-path="url(#11e97d8b5b)"><g clip-path="url(#35272fd178)"><path stroke-linecap="butt" transform="matrix(0.530873, 0.529787, -0.529787, 0.530873, 305.652143, 263.391691)" fill="none" stroke-linejoin="miter" d="M 39.656111 0.00257009 C 17.754206 -0.00143488 -0.00057424 17.753825 0.00278648 39.655738 C -0.00121849 61.557643 17.754042 79.312424 39.659633 79.312749 C 61.557859 79.313068 79.31264 61.557808 79.309279 39.655895 C 79.313284 17.75399 61.558024 -0.000790635 39.656111 0.00257009 Z M 39.656111 0.00257009 " stroke="#a6a6a6" stroke-width="2" stroke-opacity="1" stroke-miterlimit="4"/></g></g></g></g><g clip-path="url(#87215283c3)"><g clip-path="url(#eb20b2836f)"><g clip-path="url(#84dd0f770e)"><path fill="#ffffff" d="M 27.476562 305.738281 L 69.5 263.628906 L 111.613281 305.652344 L 69.585938 347.761719 Z M 27.476562 305.738281 " fill-opacity="1" fill-rule="nonzero"/></g></g></g><g clip-path="url(#b5c1259135)"><g clip-path="url(#3a84d98286)"><g clip-path="url(#8bb517d5e7)"><g clip-path="url(#9a80e1b2ba)"><path stroke-linecap="butt" transform="matrix(0.529787, -0.530873, 0.530873, 0.529787, 27.476088, 305.738241)" fill="none" stroke-linejoin="miter" d="M 39.653655 0.000564656 C 17.755429 0.000246302 0.000648693 17.755506 0.000330339 39.653733 C 0.00000444513 61.559324 17.755265 79.314105 39.657177 79.310744 C 61.559082 79.314749 79.313863 61.559489 79.310502 39.657576 C 79.314507 17.755671 61.559247 0.000890549 39.653655 0.000564656 Z M 39.653655 0.000564656 " stroke="#a6a6a6" stroke-width="2" stroke-opacity="1" stroke-miterlimit="4"/></g></g></g></g><g clip-path="url(#d69fade047)"><g clip-path="url(#a41cdd8442)"><g clip-path="url(#34de9bba5a)"><path fill="#ffffff" d="M 263.390625 69.339844 L 305.417969 27.226562 L 347.527344 69.253906 L 305.503906 111.363281 Z M 263.390625 69.339844 " fill-opacity="1" fill-rule="nonzero"/></g></g></g><g clip-path="url(#173cb8c7bd)"><g clip-path="url(#e172e02c00)"><g clip-path="url(#e13cb65221)"><g clip-path="url(#06df4aea34)"><path stroke-linecap="butt" transform="matrix(0.529787, -0.530873, 0.530873, 0.529787, 263.391695, 69.339195)" fill="none" stroke-linejoin="miter" d="M 39.658991 -0.000312646 C 17.7534 -0.000638539 -0.00138071 17.754622 0.00198001 39.656534 C -0.00202496 61.558439 17.753235 79.31322 39.658827 79.313546 C 61.557053 79.313864 79.311833 61.558604 79.312159 39.653012 C 79.312478 17.754786 61.557218 0.00000570843 39.658991 -0.000312646 Z M 39.658991 -0.000312646 " stroke="#a6a6a6" stroke-width="2" stroke-opacity="1" stroke-miterlimit="4"/></g></g></g></g></svg>