<svg xmlns="http://www.w3.org/2000/svg" xmlns:xlink="http://www.w3.org/1999/xlink" width="500" zoomAndPan="magnify" viewBox="0 0 375 374.999991" height="500" preserveAspectRatio="xMidYMid meet" version="1.0"><defs><g/><clipPath id="1a3fae26b8"><path d="M 98.296875 174.011719 L 125.273438 174.011719 L 125.273438 200.988281 L 98.296875 200.988281 Z M 98.296875 174.011719 " clip-rule="nonzero"/></clipPath><clipPath id="85e2da3432"><path d="M 111.785156 174.011719 C 104.335938 174.011719 98.296875 180.050781 98.296875 187.5 C 98.296875 194.949219 104.335938 200.988281 111.785156 200.988281 C 119.234375 200.988281 125.273438 194.949219 125.273438 187.5 C 125.273438 180.050781 119.234375 174.011719 111.785156 174.011719 Z M 111.785156 174.011719 " clip-rule="nonzero"/></clipPath><clipPath id="90fcbe6148"><path d="M 98.296875 174.011719 L 125.261719 174.011719 L 125.261719 200.976562 L 98.296875 200.976562 Z M 98.296875 174.011719 " clip-rule="nonzero"/></clipPath><clipPath id="88700c2bc2"><path d="M 111.78125 174.011719 C 104.332031 174.011719 98.296875 180.046875 98.296875 187.496094 C 98.296875 194.941406 104.332031 200.976562 111.78125 200.976562 C 119.226562 200.976562 125.261719 194.941406 125.261719 187.496094 C 125.261719 180.046875 119.226562 174.011719 111.78125 174.011719 Z M 111.78125 174.011719 " clip-rule="nonzero"/></clipPath><clipPath id="8a817f07a7"><path d="M 249.726562 174.011719 L 276.703125 174.011719 L 276.703125 200.988281 L 249.726562 200.988281 Z M 249.726562 174.011719 " clip-rule="nonzero"/></clipPath><clipPath id="6800ed9258"><path d="M 263.214844 174.011719 C 255.765625 174.011719 249.726562 180.050781 249.726562 187.5 C 249.726562 194.949219 255.765625 200.988281 263.214844 200.988281 C 270.664062 200.988281 276.703125 194.949219 276.703125 187.5 C 276.703125 180.050781 270.664062 174.011719 263.214844 174.011719 Z M 263.214844 174.011719 " clip-rule="nonzero"/></clipPath><clipPath id="5fd5e61877"><path d="M 249.726562 174.011719 L 276.691406 174.011719 L 276.691406 200.976562 L 249.726562 200.976562 Z M 249.726562 174.011719 " clip-rule="nonzero"/></clipPath><clipPath id="ed75d219d9"><path d="M 263.210938 174.011719 C 255.765625 174.011719 249.726562 180.046875 249.726562 187.496094 C 249.726562 194.941406 255.765625 200.976562 263.210938 200.976562 C 270.65625 200.976562 276.691406 194.941406 276.691406 187.496094 C 276.691406 180.046875 270.65625 174.011719 263.210938 174.011719 Z M 263.210938 174.011719 " clip-rule="nonzero"/></clipPath><clipPath id="67de859084"><path d="M 174.011719 249.71875 L 200.988281 249.71875 L 200.988281 276.691406 L 174.011719 276.691406 Z M 174.011719 249.71875 " clip-rule="nonzero"/></clipPath><clipPath id="deb42221f7"><path d="M 174.011719 263.203125 C 174.011719 270.652344 180.050781 276.691406 187.5 276.691406 C 194.949219 276.691406 200.988281 270.652344 200.988281 263.203125 C 200.988281 255.757812 194.949219 249.71875 187.5 249.71875 C 180.050781 249.71875 174.011719 255.757812 174.011719 263.203125 Z M 174.011719 263.203125 " clip-rule="nonzero"/></clipPath><clipPath id="1adb00ee4c"><path d="M 174.011719 249.726562 L 200.976562 249.726562 L 200.976562 276.691406 L 174.011719 276.691406 Z M 174.011719 249.726562 " clip-rule="nonzero"/></clipPath><clipPath id="c2f29a8a61"><path d="M 174.011719 263.210938 C 174.011719 270.65625 180.046875 276.691406 187.496094 276.691406 C 194.941406 276.691406 200.976562 270.65625 200.976562 263.210938 C 200.976562 255.765625 194.941406 249.726562 187.496094 249.726562 C 180.046875 249.726562 174.011719 255.765625 174.011719 263.210938 Z M 174.011719 263.210938 " clip-rule="nonzero"/></clipPath><clipPath id="8932459b2e"><path d="M 174.011719 98.285156 L 200.988281 98.285156 L 200.988281 125.261719 L 174.011719 125.261719 Z M 174.011719 98.285156 " clip-rule="nonzero"/></clipPath><clipPath id="3947e8f5d8"><path d="M 174.011719 111.773438 C 174.011719 119.222656 180.050781 125.261719 187.5 125.261719 C 194.949219 125.261719 200.988281 119.222656 200.988281 111.773438 C 200.988281 104.324219 194.949219 98.285156 187.5 98.285156 C 180.050781 98.285156 174.011719 104.324219 174.011719 111.773438 Z M 174.011719 111.773438 " clip-rule="nonzero"/></clipPath><clipPath id="0e9c5e99f4"><path d="M 174.011719 98.296875 L 200.976562 98.296875 L 200.976562 125.261719 L 174.011719 125.261719 Z M 174.011719 98.296875 " clip-rule="nonzero"/></clipPath><clipPath id="2c29befd16"><path d="M 174.011719 111.78125 C 174.011719 119.226562 180.046875 125.261719 187.496094 125.261719 C 194.941406 125.261719 200.976562 119.226562 200.976562 111.78125 C 200.976562 104.332031 194.941406 98.296875 187.496094 98.296875 C 180.046875 98.296875 174.011719 104.332031 174.011719 111.78125 Z M 174.011719 111.78125 " clip-rule="nonzero"/></clipPath><clipPath id="5c4b594422"><path d="M 115 115 L 145 115 L 145 145 L 115 145 Z M 115 115 " clip-rule="nonzero"/></clipPath><clipPath id="9bf06f7271"><path d="M 129.804688 109.417969 L 150.351562 129.921875 L 129.847656 150.472656 L 109.300781 129.964844 Z M 129.804688 109.417969 " clip-rule="nonzero"/></clipPath><clipPath id="ee92ed9b32"><path d="M 140.078125 119.671875 C 134.402344 114.007812 125.214844 114.019531 119.550781 119.691406 C 113.890625 125.367188 113.898438 134.554688 119.574219 140.21875 C 125.246094 145.878906 134.4375 145.871094 140.097656 140.195312 C 145.761719 134.523438 145.753906 125.332031 140.078125 119.671875 Z M 140.078125 119.671875 " clip-rule="nonzero"/></clipPath><clipPath id="df16ac6723"><path d="M 115 115 L 145 115 L 145 145 L 115 145 Z M 115 115 " clip-rule="nonzero"/></clipPath><clipPath id="d8020a3df5"><path d="M 129.804688 109.417969 L 150.507812 130.078125 L 129.847656 150.785156 L 109.144531 130.121094 Z M 129.804688 109.417969 " clip-rule="nonzero"/></clipPath><clipPath id="2c088b01ec"><path d="M 129.804688 109.417969 L 150.351562 129.921875 L 129.847656 150.46875 L 109.300781 129.964844 Z M 129.804688 109.417969 " clip-rule="nonzero"/></clipPath><clipPath id="d1d7217127"><path d="M 140.078125 119.671875 C 134.402344 114.007812 125.214844 114.015625 119.550781 119.691406 C 113.890625 125.363281 113.898438 134.554688 119.574219 140.214844 C 125.246094 145.878906 134.4375 145.871094 140.097656 140.195312 C 145.761719 134.523438 145.75 125.332031 140.078125 119.671875 Z M 140.078125 119.671875 " clip-rule="nonzero"/></clipPath><clipPath id="782e9a765c"><path d="M 230 230 L 260 230 L 260 260 L 230 260 Z M 230 230 " clip-rule="nonzero"/></clipPath><clipPath id="f0a1281513"><path d="M 245.152344 224.53125 L 265.699219 245.035156 L 245.195312 265.582031 L 224.648438 245.078125 Z M 245.152344 224.53125 " clip-rule="nonzero"/></clipPath><clipPath id="1c8c15170f"><path d="M 255.425781 234.78125 C 249.75 229.121094 240.5625 229.128906 234.898438 234.804688 C 229.238281 240.476562 229.246094 249.667969 234.921875 255.328125 C 240.59375 260.992188 249.785156 260.984375 255.445312 255.308594 C 261.109375 249.636719 261.101562 240.445312 255.425781 234.78125 Z M 255.425781 234.78125 " clip-rule="nonzero"/></clipPath><clipPath id="9bf50e7f18"><path d="M 230 230 L 260 230 L 260 260 L 230 260 Z M 230 230 " clip-rule="nonzero"/></clipPath><clipPath id="30dbe1cab9"><path d="M 245.152344 224.53125 L 265.855469 245.191406 L 245.195312 265.894531 L 224.492188 245.234375 Z M 245.152344 224.53125 " clip-rule="nonzero"/></clipPath><clipPath id="5d1cd67ee3"><path d="M 245.152344 224.53125 L 265.699219 245.035156 L 245.195312 265.582031 L 224.648438 245.078125 Z M 245.152344 224.53125 " clip-rule="nonzero"/></clipPath><clipPath id="49d52e3933"><path d="M 255.425781 234.78125 C 249.75 229.121094 240.5625 229.128906 234.898438 234.804688 C 229.238281 240.476562 229.246094 249.667969 234.921875 255.328125 C 240.59375 260.992188 249.785156 260.980469 255.445312 255.308594 C 261.109375 249.632812 261.097656 240.445312 255.425781 234.78125 Z M 255.425781 234.78125 " clip-rule="nonzero"/></clipPath><clipPath id="aba8cc710f"><path d="M 115 230 L 145 230 L 145 260 L 115 260 Z M 115 230 " clip-rule="nonzero"/></clipPath><clipPath id="0414febcac"><path d="M 109.417969 245.195312 L 129.921875 224.648438 L 150.472656 245.152344 L 129.964844 265.699219 Z M 109.417969 245.195312 " clip-rule="nonzero"/></clipPath><clipPath id="8f4c721cb1"><path d="M 119.671875 234.921875 C 114.007812 240.59375 114.019531 249.785156 119.691406 255.445312 C 125.367188 261.109375 134.554688 261.101562 140.21875 255.425781 C 145.878906 249.75 145.871094 240.5625 140.195312 234.898438 C 134.523438 229.238281 125.332031 229.246094 119.671875 234.921875 Z M 119.671875 234.921875 " clip-rule="nonzero"/></clipPath><clipPath id="03b44e6989"><path d="M 115 230 L 145 230 L 145 260 L 115 260 Z M 115 230 " clip-rule="nonzero"/></clipPath><clipPath id="474233e6f7"><path d="M 109.417969 245.195312 L 130.078125 224.488281 L 150.785156 245.152344 L 130.121094 265.855469 Z M 109.417969 245.195312 " clip-rule="nonzero"/></clipPath><clipPath id="eee8346fc1"><path d="M 109.417969 245.195312 L 129.921875 224.648438 L 150.46875 245.152344 L 129.964844 265.699219 Z M 109.417969 245.195312 " clip-rule="nonzero"/></clipPath><clipPath id="91a10abcee"><path d="M 119.671875 234.921875 C 114.007812 240.59375 114.015625 249.785156 119.691406 255.445312 C 125.363281 261.109375 134.554688 261.097656 140.214844 255.425781 C 145.878906 249.75 145.871094 240.5625 140.195312 234.898438 C 134.523438 229.238281 125.332031 229.246094 119.671875 234.921875 Z M 119.671875 234.921875 " clip-rule="nonzero"/></clipPath><clipPath id="59b0060889"><path d="M 230 115 L 260 115 L 260 145 L 230 145 Z M 230 115 " clip-rule="nonzero"/></clipPath><clipPath id="fca703ef92"><path d="M 224.53125 129.847656 L 245.035156 109.300781 L 265.582031 129.804688 L 245.078125 150.351562 Z M 224.53125 129.847656 " clip-rule="nonzero"/></clipPath><clipPath id="629089f077"><path d="M 234.78125 119.574219 C 229.121094 125.246094 229.128906 134.4375 234.804688 140.097656 C 240.476562 145.761719 249.667969 145.753906 255.328125 140.078125 C 260.992188 134.402344 260.984375 125.214844 255.308594 119.550781 C 249.636719 113.890625 240.445312 113.898438 234.78125 119.574219 Z M 234.78125 119.574219 " clip-rule="nonzero"/></clipPath><clipPath id="ca7485fb30"><path d="M 230 115 L 260 115 L 260 145 L 230 145 Z M 230 115 " clip-rule="nonzero"/></clipPath><clipPath id="758b50d27b"><path d="M 224.53125 129.847656 L 245.191406 109.140625 L 265.894531 129.804688 L 245.234375 150.507812 Z M 224.53125 129.847656 " clip-rule="nonzero"/></clipPath><clipPath id="5022bbbc61"><path d="M 224.53125 129.847656 L 245.035156 109.300781 L 265.582031 129.804688 L 245.078125 150.351562 Z M 224.53125 129.847656 " clip-rule="nonzero"/></clipPath><clipPath id="4d8a85dd54"><path d="M 234.78125 119.574219 C 229.121094 125.246094 229.128906 134.4375 234.804688 140.097656 C 240.476562 145.761719 249.667969 145.75 255.328125 140.078125 C 260.992188 134.402344 260.980469 125.214844 255.308594 119.550781 C 249.632812 113.890625 240.445312 113.898438 234.78125 119.574219 Z M 234.78125 119.574219 " clip-rule="nonzero"/></clipPath></defs><g fill="#000000" fill-opacity="1"><g transform="translate(150.850516, 198.857461)"><g><path d="M 3.84375 0.453125 L 3.1875 -0.0625 L 2.890625 -0.609375 L 2.859375 -1.25 L 2.8125 -1.78125 L 2.953125 -2.296875 L 3.390625 -3.140625 L 3.734375 -4 L 3.875 -4.609375 L 4.015625 -5.125 L 4.46875 -6.234375 L 4.578125 -7.546875 L 5.046875 -8.671875 L 5.109375 -9.265625 L 5.25 -9.796875 L 5.515625 -10.921875 L 5.765625 -11.703125 L 5.859375 -12.75 L 6.4375 -13.9375 L 6.65625 -14.453125 L 6.96875 -15.0625 L 6.921875 -15.578125 L 7.28125 -16.703125 L 7.609375 -17.28125 L 7.65625 -17.8125 L 7.796875 -18.328125 L 8.078125 -19.546875 L 8.296875 -20.046875 L 8.40625 -21.28125 L 8.546875 -21.8125 L 8.703125 -22.421875 L 8.75 -22.9375 L 9.203125 -24.125 L 9.265625 -24.75 L 9.8125 -25.953125 L 10.421875 -28.546875 L 10.890625 -29.765625 L 10.921875 -30.203125 L 11.671875 -32.609375 L 11.96875 -33.71875 L 12.234375 -34.75 L 12.75 -35.859375 L 12.921875 -36.5625 L 13.03125 -37.796875 L 13.5625 -38.890625 L 13.625 -39.515625 L 13.890625 -40.546875 L 14.328125 -42.359375 L 14.3125 -43.078125 L 14.640625 -43.75 L 15.109375 -44.953125 L 15.359375 -45.640625 L 15.21875 -46.265625 L 15.46875 -46.953125 L 15.65625 -48.109375 L 15.921875 -49.0625 L 16.328125 -49.53125 L 16.375 -50.140625 L 16.53125 -50.765625 L 16.578125 -51.296875 L 16.984375 -51.875 L 17.203125 -53.25 L 17.59375 -54.65625 L 18.046875 -55.6875 L 18.234375 -56.703125 L 18.28125 -57.328125 L 18.484375 -57.84375 L 19.109375 -59.578125 L 19.421875 -60.078125 L 20.84375 -60.109375 L 22.9375 -59.90625 L 26.171875 -59.515625 L 29.625 -59.203125 L 31.375 -58.984375 L 31.546875 -57.890625 L 31.390625 -57.28125 L 31.328125 -56.671875 L 30.609375 -54.609375 L 30.546875 -54 L 30.328125 -53.484375 L 29.890625 -51.671875 L 29.625 -50.71875 L 29.375 -49.859375 L 28.40625 -46.84375 L 28.015625 -45.625 L 27.953125 -44.921875 L 27.484375 -43.734375 L 27.203125 -42.515625 L 26.796875 -41.921875 L 26.90625 -41.203125 L 26.671875 -40.53125 L 26.515625 -39.921875 L 26.296875 -39.328125 L 25.921875 -38.125 L 25.546875 -37 L 25.125 -36.421875 L 25.15625 -35.71875 L 24.9375 -35.109375 L 24.859375 -34.40625 L 24.4375 -32.578125 L 24.1875 -31.984375 L 24.078125 -30.75 L 23.84375 -30.140625 L 23.453125 -28.859375 L 23.3125 -28.25 L 22.859375 -26.875 L 22.640625 -25.578125 L 22.265625 -24.375 L 22.125 -23.671875 L 21.96875 -23.0625 L 21.484375 -21.703125 L 21.421875 -21.078125 L 21.1875 -20.390625 L 20.984375 -19.15625 L 20.53125 -18.0625 L 20.328125 -16.921875 L 20.09375 -16.140625 L 20 -15.265625 L 19.859375 -14.65625 L 19.734375 -14.140625 L 19.484375 -13.546875 L 19.328125 -12.578125 L 19.046875 -11.703125 L 18.96875 -10.84375 L 19.390625 -10.375 L 20.265625 -10.296875 L 21.046875 -10.125 L 25.609375 -9.703125 L 27.5625 -9.625 L 29.84375 -9.40625 L 30.328125 -9.09375 L 30.125 -7.78125 L 29.90625 -7.171875 L 29.921875 -6.5625 L 29.59375 -5.890625 L 28.875 -2.859375 L 28.546875 -2.265625 L 28.5 -1.640625 L 28.359375 -1.125 L 28.078125 0.1875 L 27.609375 1.546875 L 26.828125 2.09375 L 25.15625 1.9375 L 24.015625 2.03125 L 22.03125 2.109375 L 20.46875 1.875 L 19.140625 1.84375 L 17.9375 1.546875 L 16.171875 1.484375 L 8.96875 0.828125 L 8.078125 0.828125 L 5.59375 0.609375 L 5.015625 0.453125 Z M 3.84375 0.453125 "/></g></g></g><g fill="#000000" fill-opacity="1"><g transform="translate(177.225138, 235.665238)"><g><path d="M 12.03125 1.1875 L 11.15625 0.828125 L 10.484375 0.78125 L 9.671875 -0.0625 L 9.96875 -1.5 L 10.203125 -3.53125 L 11.046875 -5.53125 L 11.296875 -6.203125 L 11.5 -7.625 L 11.734375 -8.1875 L 11.9375 -9.5625 L 11.984375 -10.234375 L 12.578125 -11.546875 L 12.734375 -12.234375 L 12.6875 -13.015625 L 13.328125 -15.015625 L 13.390625 -15.796875 L 13.75 -16.9375 L 14.15625 -18.375 L 14.40625 -19.015625 L 14.5625 -19.703125 L 14.84375 -20.953125 L 15.078125 -21.515625 L 15.28125 -22.890625 L 15.84375 -23.8125 L 15.71875 -24.78125 L 15.859375 -25.46875 L 16.09375 -26.125 L 16.671875 -27.46875 L 17.171875 -28.890625 L 17.421875 -29.5625 L 17.28125 -30.234375 L 17.859375 -31.359375 L 18.09375 -31.921875 L 18.1875 -33.296875 L 18.5625 -34.25 L 18.625 -35.125 L 18.859375 -35.78125 L 19.296875 -36.328125 L 19.359375 -37.015625 L 19.59375 -37.578125 L 19.984375 -39.015625 L 19.9375 -39.703125 L 20.515625 -40.75 L 20.578125 -41.703125 L 20.8125 -42.171875 L 20.875 -42.953125 L 21.015625 -43.625 L 21.265625 -44.296875 L 21.859375 -45.828125 L 22.015625 -46.375 L 22.0625 -46.96875 L 22.203125 -47.640625 L 22.25 -48.234375 L 22.640625 -49.46875 L 22.875 -50.125 L 23.1875 -51.578125 L 23.390625 -53.109375 L 18.125 -53.5 L 16.796875 -53.6875 L 16.109375 -53.65625 L 15.21875 -53.71875 L 14.265625 -53.875 L 13.484375 -53.9375 L 12.625 -54.296875 L 12.421875 -55.203125 L 12.6875 -56.359375 L 13.046875 -57.109375 L 13.09375 -57.890625 L 13.03125 -58.5625 L 13.53125 -59.90625 L 13.78125 -60.46875 L 13.96875 -61.828125 L 14.453125 -63.0625 L 14.796875 -63.609375 L 14.90625 -64.96875 L 15.03125 -65.546875 L 15.59375 -66.59375 L 16.53125 -67.1875 L 17.21875 -67.234375 L 19.734375 -67.046875 L 20.21875 -66.921875 L 20.890625 -66.875 L 21.578125 -66.90625 L 28.765625 -66.375 L 29.453125 -66.234375 L 31.578125 -66.078125 L 37.796875 -65.703125 L 39.25 -65.5 L 41.296875 -65.4375 L 42.15625 -65.28125 L 48.171875 -64.828125 L 49.515625 -64.640625 L 50.375 -64.390625 L 50.53125 -63.59375 L 50.484375 -63 L 50.34375 -62.328125 L 50.078125 -61.5625 L 50.03125 -60.890625 L 49.890625 -60.328125 L 49.640625 -59.65625 L 49.59375 -59.078125 L 49.3125 -57.90625 L 49.078125 -57.25 L 48.921875 -56.671875 L 48.75 -55.515625 L 48.265625 -54.28125 L 48.015625 -53.625 L 47.8125 -52.28125 L 47.375 -51.40625 L 46.375 -51.390625 L 45.53125 -51.546875 L 44.359375 -51.640625 L 43.46875 -51.609375 L 42.5 -51.6875 L 38.4375 -52.078125 L 37.546875 -52.046875 L 37.3125 -51.390625 L 37.359375 -50.8125 L 37.015625 -50.15625 L 36.96875 -49.5625 L 36.734375 -49 L 36.453125 -47.75 L 36.296875 -47.0625 L 35.78125 -45.34375 L 35.328125 -44.609375 L 35.5 -44.109375 L 34.90625 -42.78125 L 34.421875 -41.546875 L 34.390625 -40.96875 L 34.203125 -39.8125 L 34.046875 -39.234375 L 34 -38.5625 L 33.4375 -37.4375 L 33.15625 -35.984375 L 32.890625 -35.3125 L 32.515625 -34 L 32.171875 -33.421875 L 32.125 -32.75 L 31.9375 -31.5 L 31.546875 -30.34375 L 31.109375 -29.6875 L 30.90625 -28.34375 L 30.671875 -27.78125 L 30.625 -27.1875 L 30.234375 -25.859375 L 29.828125 -24.421875 L 29.578125 -23.5625 L 29.515625 -22.59375 L 29.359375 -22.015625 L 29.125 -21.453125 L 28.984375 -20.78125 L 28.5 -19.640625 L 28.34375 -18.96875 L 28.203125 -18.390625 L 28.25 -17.703125 L 27.859375 -16.375 L 27.453125 -14.84375 L 26.96875 -13.609375 L 26.828125 -12.921875 L 26.4375 -11.703125 L 25.8125 -9.6875 L 25.5625 -8.9375 L 25.171875 -7.578125 L 25.203125 -6.796875 L 24.5625 -4.703125 L 23.78125 -2.03125 L 23.484375 -0.703125 L 23.09375 0.640625 L 22.84375 1.21875 L 21.640625 1.609375 L 13.203125 0.984375 Z M 12.03125 1.1875 "/></g></g></g><g clip-path="url(#1a3fae26b8)"><g clip-path="url(#85e2da3432)"><path fill="#000000" d="M 98.296875 174.011719 L 125.273438 174.011719 L 125.273438 200.988281 L 98.296875 200.988281 Z M 98.296875 174.011719 " fill-opacity="1" fill-rule="nonzero"/></g></g><g clip-path="url(#90fcbe6148)"><g clip-path="url(#88700c2bc2)"><path stroke-linecap="butt" transform="matrix(0.75, 0, 0, 0.75, 98.297172, 174.01244)" fill="none" stroke-linejoin="miter" d="M 17.978771 -0.000961364 C 8.046479 -0.000961364 -0.000396594 8.045914 -0.000396594 17.978206 C -0.000396594 27.90529 8.046479 35.952166 17.978771 35.952166 C 27.905855 35.952166 35.952731 27.90529 35.952731 17.978206 C 35.952731 8.045914 27.905855 -0.000961364 17.978771 -0.000961364 Z M 17.978771 -0.000961364 " stroke="#a6a6a6" stroke-width="2" stroke-opacity="1" stroke-miterlimit="4"/></g></g><g clip-path="url(#8a817f07a7)"><g clip-path="url(#6800ed9258)"><path fill="#000000" d="M 249.726562 174.011719 L 276.703125 174.011719 L 276.703125 200.988281 L 249.726562 200.988281 Z M 249.726562 174.011719 " fill-opacity="1" fill-rule="nonzero"/></g></g><g clip-path="url(#5fd5e61877)"><g clip-path="url(#ed75d219d9)"><path stroke-linecap="butt" transform="matrix(0.75, 0, 0, 0.75, 249.727723, 174.01244)" fill="none" stroke-linejoin="miter" d="M 17.97762 -0.000961364 C 8.050536 -0.000961364 -0.00154774 8.045914 -0.00154774 17.978206 C -0.00154774 27.90529 8.050536 35.952166 17.97762 35.952166 C 27.904704 35.952166 35.95158 27.90529 35.95158 17.978206 C 35.95158 8.045914 27.904704 -0.000961364 17.97762 -0.000961364 Z M 17.97762 -0.000961364 " stroke="#a6a6a6" stroke-width="2" stroke-opacity="1" stroke-miterlimit="4"/></g></g><g clip-path="url(#67de859084)"><g clip-path="url(#deb42221f7)"><path fill="#000000" d="M 174.011719 276.691406 L 174.011719 249.71875 L 200.988281 249.71875 L 200.988281 276.691406 Z M 174.011719 276.691406 " fill-opacity="1" fill-rule="nonzero"/></g></g><g clip-path="url(#1adb00ee4c)"><g clip-path="url(#c2f29a8a61)"><path stroke-linecap="butt" transform="matrix(0, -0.75, 0.75, 0, 174.012444, 276.692559)" fill="none" stroke-linejoin="miter" d="M 17.975497 -0.000967364 C 8.048413 -0.000967364 0.00153757 8.045908 0.00153757 17.9782 C 0.00153757 27.905284 8.048413 35.95216 17.975497 35.95216 C 27.902581 35.95216 35.954665 27.905284 35.954665 17.9782 C 35.954665 8.045908 27.902581 -0.000967364 17.975497 -0.000967364 Z M 17.975497 -0.000967364 " stroke="#a6a6a6" stroke-width="2" stroke-opacity="1" stroke-miterlimit="4"/></g></g><g clip-path="url(#8932459b2e)"><g clip-path="url(#3947e8f5d8)"><path fill="#000000" d="M 174.011719 125.261719 L 174.011719 98.285156 L 200.988281 98.285156 L 200.988281 125.261719 Z M 174.011719 125.261719 " fill-opacity="1" fill-rule="nonzero"/></g></g><g clip-path="url(#0e9c5e99f4)"><g clip-path="url(#2c29befd16)"><path stroke-linecap="butt" transform="matrix(0, -0.75, 0.75, 0, 174.012444, 125.262004)" fill="none" stroke-linejoin="miter" d="M 17.97434 -0.000967364 C 8.047256 -0.000967364 0.000380033 8.045908 0.000380033 17.9782 C 0.000380033 27.905284 8.047256 35.95216 17.97434 35.95216 C 27.906632 35.95216 35.953507 27.905284 35.953507 17.9782 C 35.953507 8.045908 27.906632 -0.000967364 17.97434 -0.000967364 Z M 17.97434 -0.000967364 " stroke="#a6a6a6" stroke-width="2" stroke-opacity="1" stroke-miterlimit="4"/></g></g><g clip-path="url(#5c4b594422)"><g clip-path="url(#9bf06f7271)"><g clip-path="url(#ee92ed9b32)"><path fill="#000000" d="M 129.804688 109.417969 L 150.351562 129.921875 L 129.847656 150.472656 L 109.300781 129.964844 Z M 129.804688 109.417969 " fill-opacity="1" fill-rule="nonzero"/></g></g></g><g clip-path="url(#df16ac6723)"><g clip-path="url(#d8020a3df5)"><g clip-path="url(#2c088b01ec)"><g clip-path="url(#d1d7217127)"><path stroke-linecap="butt" transform="matrix(0.530873, 0.529787, -0.529787, 0.530873, 129.804342, 109.417874)" fill="none" stroke-linejoin="miter" d="M 19.353791 0.00115947 C 8.662477 0.00126418 -0.00108563 8.661825 -0.000980922 19.353139 C -0.000868671 30.037087 8.663371 38.704336 19.351006 38.700545 C 30.038633 38.704119 38.705882 30.039879 38.702091 19.352245 C 38.705665 8.664617 30.037739 0.00104722 19.353791 0.00115947 Z M 19.353791 0.00115947 " stroke="#a6a6a6" stroke-width="2" stroke-opacity="1" stroke-miterlimit="4"/></g></g></g></g><g clip-path="url(#782e9a765c)"><g clip-path="url(#f0a1281513)"><g clip-path="url(#1c8c15170f)"><path fill="#000000" d="M 245.152344 224.53125 L 265.699219 245.035156 L 245.195312 265.582031 L 224.648438 245.078125 Z M 245.152344 224.53125 " fill-opacity="1" fill-rule="nonzero"/></g></g></g><g clip-path="url(#9bf50e7f18)"><g clip-path="url(#30dbe1cab9)"><g clip-path="url(#5d1cd67ee3)"><g clip-path="url(#49d52e3933)"><path stroke-linecap="butt" transform="matrix(0.530873, 0.529787, -0.529787, 0.530873, 245.152121, 224.52977)" fill="none" stroke-linejoin="miter" d="M 19.3513 -0.00110324 C 8.663666 0.00268808 0.000102955 8.663249 0.000207666 19.354563 C 0.000319917 30.038511 8.66456 38.70576 19.352195 38.701969 C 30.039822 38.705543 38.703392 30.037617 38.70328 19.353669 C 38.703175 8.662355 30.038928 0.00247112 19.3513 -0.00110324 Z M 19.3513 -0.00110324 " stroke="#a6a6a6" stroke-width="2" stroke-opacity="1" stroke-miterlimit="4"/></g></g></g></g><g clip-path="url(#aba8cc710f)"><g clip-path="url(#0414febcac)"><g clip-path="url(#8f4c721cb1)"><path fill="#000000" d="M 109.417969 245.195312 L 129.921875 224.648438 L 150.472656 245.152344 L 129.964844 265.699219 Z M 109.417969 245.195312 " fill-opacity="1" fill-rule="nonzero"/></g></g></g><g clip-path="url(#03b44e6989)"><g clip-path="url(#474233e6f7)"><g clip-path="url(#eee8346fc1)"><g clip-path="url(#91a10abcee)"><path stroke-linecap="butt" transform="matrix(0.529787, -0.530873, 0.530873, 0.529787, 109.417879, 245.194143)" fill="none" stroke-linejoin="miter" d="M 19.352357 0.00258242 C 8.664729 -0.000991943 -0.00252 8.663248 0.00127133 19.350883 C -0.00230303 30.03851 8.665623 38.70208 19.349572 38.701968 C 30.040885 38.701863 38.704448 30.041302 38.704343 19.349989 C 38.704231 8.66604 30.039991 -0.00120891 19.352357 0.00258242 Z M 19.352357 0.00258242 " stroke="#a6a6a6" stroke-width="2" stroke-opacity="1" stroke-miterlimit="4"/></g></g></g></g><g clip-path="url(#59b0060889)"><g clip-path="url(#fca703ef92)"><g clip-path="url(#629089f077)"><path fill="#000000" d="M 224.53125 129.847656 L 245.035156 109.300781 L 265.582031 129.804688 L 245.078125 150.351562 Z M 224.53125 129.847656 " fill-opacity="1" fill-rule="nonzero"/></g></g></g><g clip-path="url(#ca7485fb30)"><g clip-path="url(#758b50d27b)"><g clip-path="url(#5022bbbc61)"><g clip-path="url(#4d8a85dd54)"><path stroke-linecap="butt" transform="matrix(0.529787, -0.530873, 0.530873, 0.529787, 224.529775, 129.846363)" fill="none" stroke-linejoin="miter" d="M 19.349866 0.000319708 C 8.665918 0.000431959 -0.00133141 8.664672 0.00245992 19.352307 C -0.00111445 30.039934 8.666812 38.703504 19.35076 38.703392 C 30.042074 38.703287 38.701958 30.03904 38.705532 19.351412 C 38.701741 8.663778 30.04118 0.000214996 19.349866 0.000319708 Z M 19.349866 0.000319708 " stroke="#a6a6a6" stroke-width="2" stroke-opacity="1" stroke-miterlimit="4"/></g></g></g></g></svg>